<svg width="354" height="115" viewBox="0 0 354 115" fill="none" xmlns="http://www.w3.org/2000/svg">
<path d="M81.5753 90.4949C88.2182 89.1533 95.4065 87.5561 99.7709 82.4131C107.409 73.5007 103.333 58.0079 111.998 50.0857C118.705 43.9206 129.263 45.8053 138.12 48.0413L160.262 53.6315C162.573 54.2385 165.108 54.7815 167.29 53.7593C169.184 52.8329 170.307 50.9163 171.334 49.0955C178.298 36.7651 185.871 24.818 194.022 13.2543C198.387 7.08912 203.842 0.508659 211.416 0.0294992C227.012 -0.960765 232.596 23.2847 247.775 26.9902C250.502 27.6611 253.391 27.5652 256.022 28.5235C264.43 31.6541 265.617 42.7706 265.393 51.683C275.854 50.8524 286.155 59.637 286.926 70.0827C300.596 65.4828 315.615 77.2701 320.878 90.6866C322.194 94.0088 323.285 97.6504 325.98 99.9184C332.591 105.445 347.963 106.116 353.45 112.728C257.819 113.622 42.681 115.411 0 114.07C0 114.07 53.2069 96.1809 81.5753 90.463V90.4949Z" fill="white" fill-opacity="0.4"/>
<path d="M92.2615 98.1614C98.2946 96.9475 104.745 95.4462 108.756 90.7823C115.656 82.7005 111.965 68.6771 119.828 61.4897C125.925 55.8995 135.488 57.6245 143.511 59.6369L163.6 64.716C165.686 65.2271 167.996 65.7702 169.954 64.8119C171.687 64.0133 172.714 62.2244 173.644 60.5633C179.934 49.4149 186.802 38.5859 194.182 28.0763C198.13 22.4861 203.104 16.4806 209.939 16.0334C224.091 15.139 229.162 37.1164 242.929 40.4705C245.4 41.0775 247.999 41.0136 250.374 41.908C257.979 44.7191 259.071 54.8453 258.878 62.9272C268.377 62.1605 277.683 70.1146 278.389 79.57C290.776 75.4173 304.415 86.1185 309.197 98.2572C310.384 101.26 311.347 104.582 313.818 106.627C319.787 111.642 330.826 106.722 335.768 112.728C249.058 113.558 54.009 115.156 15.3394 113.942C15.3394 113.942 66.4924 103.241 92.2294 98.0656L92.2615 98.1614Z" fill="white"/>
</svg>
