<svg width="1920" height="184" viewBox="0 0 1920 184" fill="none" xmlns="http://www.w3.org/2000/svg">
<g clip-path="url(#clip0_3223_147)">
<path d="M1258.83 188.749L-330.887 199.709C-330.887 199.709 -133.065 186.425 -82.4376 181.091C-72.2157 180.024 -61.5367 163.247 -29.4108 172.175C-27.2013 169.432 -26.4395 164.72 -8.30672 161.723C9.34351 158.815 20.759 158.472 27.108 159.818C37.114 149.569 67.4877 147.029 83.6268 155.094C94.5471 145.531 126.584 146.178 136.679 156.161C145.669 152.274 155.091 148.274 166.532 146.953C177.973 145.632 191.966 147.969 196.512 153.633C204.512 145.772 232.105 147.613 236.028 156.364C245.882 151.335 251.558 141.479 289.665 139.524C308.102 138.571 317.74 142.724 332.076 148.972C342.818 137.339 392.455 137.923 399.236 147.677L416.695 141.543C437.101 136.476 454.815 142.813 465.126 141.606C470.56 140.971 475.614 139.778 480.947 138.977C494.267 136.958 509.048 137.568 521.759 140.654C527.181 141.975 542.964 139.473 548.424 137.428C561.16 132.678 577.122 130.316 592.614 130.888C598.785 131.091 604.88 131.789 611.076 131.815C622.86 131.904 629.984 125.452 657.107 128.221L681.69 133.516C720.508 121.185 749.243 125.985 765.751 137.034C778.944 128.716 791.007 128.436 807.172 128.817C831.057 129.376 853.062 136.45 866.903 142.47C872.147 132.678 903.105 126.811 915.105 134.177C917.771 127.611 932.221 123.522 945.326 123.572C958.456 123.636 970.455 126.773 981.871 129.821C988.931 118.073 1023.88 113.616 1039.71 122.48C1054.2 112.028 1082.73 113.958 1097.89 123.661C1102.5 118.645 1104.2 118.657 1114.3 113.527C1123.76 108.713 1137.7 106.453 1148.2 110.568C1153.17 112.523 1161.5 113.235 1165.03 115.889C1166.11 109.958 1181.25 105.551 1199.02 104.662C1282.76 100.458 1258.92 188.799 1258.92 188.799L1258.83 188.749Z" fill="white"/>
<path d="M1924.49 190.108L731.821 250.763C731.821 250.763 860.731 189.79 899.511 180.862C907.333 179.084 914.215 155.259 939.84 166.829C941.313 162.93 941.541 156.275 955.331 151.563C968.753 146.979 977.566 146.153 982.619 147.842C989.502 133.212 1012.82 128.741 1025.98 139.587C1033.63 125.884 1060.61 123.484 1069.3 137.187C1075.92 131.472 1076.31 130.507 1085.07 128.31C1093.83 126.112 1109.32 126.366 1113.32 134.215C1118.86 122.976 1142.83 120.156 1146.61 132.31C1153.83 124.944 1152.29 118.289 1181.64 114.403C1195.83 112.523 1205.63 113.031 1217.27 121.388C1224.14 105.894 1250.55 103.595 1267.26 112.231C1269.52 113.4 1272.08 113.26 1274.14 111.812L1283.65 105.157C1299.05 97.4866 1313.28 105.818 1321.15 103.824C1325.31 102.783 1329.12 100.966 1333.2 99.6837C1343.36 96.4706 1352.59 96.3817 1363.13 98.1216C1371.03 99.4424 1380.59 97.2072 1384.63 94.1846C1394.06 87.1615 1406.97 84.7485 1419.01 85.066C1423.81 85.1803 1428.59 85.9677 1433.41 85.8026C1442.55 85.574 1446.48 78.0429 1467.71 81.1417L1481.26 84.6342C1483.03 68.9243 1532.95 60.6693 1546.68 75.6553C1556.2 63.5903 1562.14 60.6566 1577.9 57.8245C1599.3 53.951 1611.41 57.6213 1622.64 65.635C1625.86 51.7666 1652.11 50.3315 1662.01 60.2756C1663.52 50.9792 1674.38 44.8578 1684.53 44.5403C1694.7 44.2482 1704.23 48.2741 1713.35 52.2492C1717.82 35.5741 1744.51 28.3097 1757.53 40.2604C1767.86 25.1982 1790.16 27.0778 1802.68 40.2096C1805.82 33.0595 1807.15 33.0214 1814.54 25.5284C1821.47 18.518 1832.08 14.9366 1840.55 20.3849C1844.57 22.9757 1851.06 23.7631 1854.01 27.3572C1854.35 19.0387 1865.71 12.422 1879.39 10.6313C1943.9 2.27471 1924.53 190.159 1924.53 190.159L1924.49 190.108Z" fill="white"/>
</g>
<defs>
<clipPath id="clip0_3223_147">
<rect width="1920" height="184" fill="white"/>
</clipPath>
</defs>
</svg>
