<svg width="1920" height="1200" viewBox="0 0 1920 1200" fill="none" xmlns="http://www.w3.org/2000/svg">
<g clip-path="url(#clip0_3210_2)">
<path d="M1258.83 1222.75L-330.887 1233.71C-330.887 1233.71 -133.065 1220.42 -82.4376 1215.09C-72.2157 1214.02 -61.5367 1197.25 -29.4108 1206.18C-27.2013 1203.43 -26.4395 1198.72 -8.30673 1195.72C9.34351 1192.81 20.759 1192.47 27.108 1193.82C37.114 1183.57 67.4876 1181.03 83.6268 1189.09C94.5471 1179.53 126.584 1180.18 136.679 1190.16C145.669 1186.27 155.091 1182.27 166.532 1180.95C177.973 1179.63 191.966 1181.97 196.512 1187.63C204.512 1179.77 232.105 1181.61 236.028 1190.36C245.882 1185.33 251.558 1175.48 289.665 1173.52C308.102 1172.57 317.74 1176.72 332.076 1182.97C342.818 1171.34 392.455 1171.92 399.236 1181.68L416.695 1175.54C437.101 1170.48 454.815 1176.81 465.126 1175.61C470.56 1174.97 475.614 1173.78 480.947 1172.98C494.267 1170.96 509.048 1171.57 521.759 1174.65C527.181 1175.97 542.964 1173.47 548.424 1171.43C561.161 1166.68 577.122 1164.32 592.614 1164.89C598.785 1165.09 604.88 1165.79 611.076 1165.81C622.86 1165.9 629.984 1159.45 657.107 1162.22L681.69 1167.52C720.508 1155.18 749.243 1159.99 765.751 1171.03C778.944 1162.72 791.007 1162.44 807.172 1162.82C831.057 1163.38 853.062 1170.45 866.903 1176.47C872.147 1166.68 903.105 1160.81 915.105 1168.18C917.771 1161.61 932.221 1157.52 945.326 1157.57C958.456 1157.64 970.455 1160.77 981.871 1163.82C988.931 1152.07 1023.88 1147.62 1039.71 1156.48C1054.2 1146.03 1082.73 1147.96 1097.89 1157.66C1102.5 1152.64 1104.2 1152.66 1114.3 1147.53C1123.76 1142.71 1137.7 1140.45 1148.2 1144.57C1153.17 1146.52 1161.5 1147.23 1165.03 1149.89C1166.11 1143.96 1181.25 1139.55 1199.02 1138.66C1282.76 1134.46 1258.92 1222.8 1258.92 1222.8L1258.83 1222.75Z" fill="white"/>
<path d="M1924.49 1224.11L731.821 1284.76C731.821 1284.76 860.731 1223.79 899.511 1214.86C907.333 1213.08 914.215 1189.26 939.84 1200.83C941.313 1196.93 941.541 1190.27 955.331 1185.56C968.753 1180.98 977.566 1180.15 982.619 1181.84C989.502 1167.21 1012.82 1162.74 1025.98 1173.59C1033.63 1159.88 1060.61 1157.48 1069.3 1171.19C1075.92 1165.47 1076.31 1164.51 1085.07 1162.31C1093.83 1160.11 1109.32 1160.37 1113.32 1168.22C1118.86 1156.98 1142.83 1154.16 1146.61 1166.31C1153.83 1158.94 1152.29 1152.29 1181.64 1148.4C1195.83 1146.52 1205.63 1147.03 1217.27 1155.39C1224.14 1139.89 1250.55 1137.6 1267.26 1146.23C1269.52 1147.4 1272.08 1147.26 1274.14 1145.81L1283.65 1139.16C1299.05 1131.49 1313.28 1139.82 1321.15 1137.82C1325.31 1136.78 1329.12 1134.97 1333.2 1133.68C1343.36 1130.47 1352.59 1130.38 1363.13 1132.12C1371.03 1133.44 1380.59 1131.21 1384.63 1128.18C1394.06 1121.16 1406.97 1118.75 1419.01 1119.07C1423.81 1119.18 1428.59 1119.97 1433.41 1119.8C1442.55 1119.57 1446.48 1112.04 1467.71 1115.14L1481.26 1118.63C1483.03 1102.92 1532.95 1094.67 1546.68 1109.66C1556.2 1097.59 1562.14 1094.66 1577.9 1091.82C1599.3 1087.95 1611.41 1091.62 1622.64 1099.64C1625.86 1085.77 1652.11 1084.33 1662.01 1094.28C1663.52 1084.98 1674.38 1078.86 1684.53 1078.54C1694.7 1078.25 1704.23 1082.27 1713.35 1086.25C1717.82 1069.57 1744.51 1062.31 1757.53 1074.26C1767.86 1059.2 1790.16 1061.08 1802.68 1074.21C1805.82 1067.06 1807.15 1067.02 1814.54 1059.53C1821.47 1052.52 1832.08 1048.94 1840.55 1054.38C1844.57 1056.98 1851.06 1057.76 1854.01 1061.36C1854.35 1053.04 1865.71 1046.42 1879.39 1044.63C1943.9 1036.27 1924.53 1224.16 1924.53 1224.16L1924.49 1224.11Z" fill="white"/>
</g>
<defs>
<clipPath id="clip0_3210_2">
<rect width="1920" height="1200" fill="white"/>
</clipPath>
</defs>
</svg>
