<svg width="1440" height="1200" viewBox="0 0 1440 1200" fill="none" xmlns="http://www.w3.org/2000/svg">
<g clip-path="url(#clip0_3210_2)">
<path d="M676.475 1198.18L676.397 1199.76L682.085 1200.06L681.791 1196.62L679.045 1196.58L676.475 1198.18Z" fill="#444444"/>
<path d="M681.595 1191.22C681.281 1192.14 680.261 1194.84 680.045 1195.42L679.633 1195.9L677.966 1195.18L676.318 1190.72L676.691 1190.4C676.691 1190.4 677.476 1189.5 679.064 1189.52C679.869 1189.52 680.614 1189.58 681.144 1189.76C681.418 1190.02 681.83 1190.54 681.595 1191.24V1191.22Z" fill="#444444"/>
<path d="M677.613 1202.98L678.202 1203.9L679.849 1203.98L680.34 1196.9L677.653 1196.94L677.613 1202.98Z" fill="#303030"/>
<path d="M673.925 1199.68L680.261 1196.9L680.32 1196.7C680.437 1196.22 680.026 1195.76 679.496 1195.76H678.437L675.004 1198.08L673.925 1199.7V1199.68Z" fill="#1C1C1C"/>
<path d="M673.965 1191.56L676.711 1190.42L677.77 1190.52C679.084 1190.62 680.085 1191.64 680.085 1192.84L679.849 1194.84C679.81 1195.12 679.692 1195.36 679.477 1195.56L678.829 1196.18L674.651 1198.9L673.965 1191.56Z" fill="#0C0000"/>
<path d="M665.569 1177.26L679.496 1178.02L678.81 1192.76L665.314 1191.16L665.569 1177.26Z" fill="#FFBA38"/>
<path d="M685.832 1188.8L678.81 1192.76L679.496 1178.02L686.675 1175.32L685.832 1188.8Z" fill="#FFC400"/>
<path d="M665.569 1177.26L673.474 1174.72L686.675 1175.32L679.496 1178.02L665.569 1177.26Z" fill="#FCD363"/>
<path d="M686.538 1177.58L679.378 1180.38L679.496 1178.02L686.675 1175.3L686.538 1177.58Z" fill="#FFEDB2"/>
<path d="M676.848 1191.84C676.848 1191.84 678.868 1195.3 673.827 1200.36C673.572 1200.62 673.533 1200.98 673.69 1201.3C674.318 1202.46 675.789 1205.2 675.946 1206.12C676.162 1207.32 676.593 1209.02 676.593 1209.02C676.593 1209.02 675.887 1210.88 672.866 1210.26C672.866 1210.26 670.179 1204.48 669.12 1202.76C667.786 1200.62 667.982 1199.38 668.629 1198.28L666.079 1195.22L665.53 1190.58L676.829 1191.82L676.848 1191.84Z" fill="#002619"/>
<path d="M658.92 1180.64L657.88 1181.18L655.644 1183.24C655.644 1183.24 655.644 1183.5 654.507 1183.78C653.369 1184.06 651.447 1186.72 651.447 1186.72L654.644 1188.3L660.764 1183.26L658.94 1180.64H658.92Z" fill="#683A28"/>
<path d="M657.88 1181.18C657.88 1181.18 659.391 1177.78 661.352 1177.62C663.314 1177.46 670.65 1176.38 670.65 1176.38C670.65 1176.38 671.827 1176.06 672.984 1176.92C674.141 1177.78 674.534 1178.34 675.181 1181.06C675.181 1181.06 675.416 1183.36 675.593 1184.16C675.73 1184.74 676.456 1187.12 676.593 1189.68C676.593 1189.68 676.789 1191.16 677.182 1192.2C677.574 1193.24 677.201 1193.1 677.201 1193.1C677.201 1193.1 677.476 1191.58 671.16 1191.62C664.824 1191.66 664.059 1191.56 664.059 1191.56L664.648 1190.2C664.648 1190.2 664.059 1188.84 664.314 1188C664.314 1188 661.548 1184.58 661.49 1182.86L660.783 1183.52C660.783 1183.52 659.234 1181.3 657.861 1181.18H657.88Z" fill="#AFEDD6"/>
<path d="M669.61 1197.16L668.629 1199.12C668.629 1199.12 668.649 1198.98 668.531 1198.78C668.394 1198.5 668.021 1198.18 667.256 1198.14C666.354 1198.08 663.471 1197.96 661.803 1197.9C661.077 1197.86 660.587 1197.84 660.587 1197.84L658.822 1195.9L657.821 1194.8L656.88 1193.78C656.88 1193.78 657.076 1193.54 657.39 1193.22C658.292 1192.24 660.273 1190.34 661.529 1190.44C663.216 1190.58 666.57 1190.34 667.354 1191.76C668.139 1193.16 670.61 1195.18 669.63 1197.16H669.61Z" fill="#444444"/>
<path d="M662.667 1192.66C662.667 1192.66 662.667 1192.26 662.667 1191.9C662.667 1191.48 663.098 1191.2 663.53 1191.3L665.805 1191.9L664.02 1194.66C663.726 1195.12 663.137 1195.36 662.568 1195.28C662.568 1195.28 661.431 1194.8 661.019 1194.72C660.529 1194.62 659.077 1194.72 659.077 1194.72L658.077 1191.68L658.194 1191.28C658.273 1191.02 658.528 1190.86 658.802 1190.86H659.352L659.45 1190.26C659.489 1190.02 659.744 1189.86 660.019 1189.92L661.509 1190.24C661.823 1190.32 662.019 1190.6 661.96 1190.88L661.686 1192.24L662.686 1192.66H662.667Z" fill="#333333"/>
<path d="M661.137 1197.5L658.685 1192.2C658.43 1191.66 657.704 1191.44 657.174 1191.76L655.998 1192.48L656.841 1196.52L661.137 1197.5Z" fill="#0C0000"/>
<path d="M662.255 1196.98L661.784 1197.9L661.313 1198.9C661.176 1199.16 660.96 1199.36 660.666 1199.46C660.097 1199.68 658.979 1200.08 657.606 1200.58C655.35 1201.38 652.349 1202.38 649.544 1203.14C646.464 1203.98 643.64 1204.54 642.385 1204.2C639.815 1203.52 640.992 1200.1 641.482 1197.72C642.424 1193.28 644.895 1190.8 645.817 1190C646.033 1189.82 646.308 1189.7 646.602 1189.66L658.469 1188.44C658.469 1188.44 657.057 1190.68 657.351 1193.22C657.41 1193.72 657.527 1194.2 657.743 1194.7C657.743 1194.74 657.763 1194.76 657.782 1194.8C658.018 1195.3 658.39 1195.66 658.802 1195.9C659.763 1196.48 661.019 1196.5 661.803 1196.44C662.117 1196.42 662.353 1196.72 662.235 1196.98H662.255Z" fill="#333333"/>
<path d="M681.948 1190.66C681.889 1191.28 681.811 1192.36 681.752 1193C681.713 1193.34 681.595 1193.66 681.36 1193.94L680.045 1195.44C680.261 1194.86 681.281 1192.14 681.595 1191.24C681.83 1190.56 681.399 1190.02 681.124 1189.76C681.654 1189.92 682.007 1190.22 681.948 1190.68V1190.66Z" fill="#FFC400"/>
<path d="M669.296 1203.4C669.159 1202.94 668.884 1202.5 668.394 1202.08C666.08 1200.12 661.038 1200.24 657.625 1200.58C658.999 1200.1 660.117 1199.68 660.685 1199.46C660.96 1199.36 661.195 1199.16 661.333 1198.9L661.803 1197.9C663.471 1197.98 666.374 1198.1 667.276 1198.14C668.041 1198.18 668.375 1198.52 668.531 1198.8C668.394 1199.66 668.296 1200.98 668.943 1201.9C669.453 1202.64 669.453 1203.1 669.316 1203.4H669.296Z" fill="#303030"/>
<path d="M637.069 1186.84L641.384 1187.24C641.384 1187.24 642.483 1187.08 640.815 1185.1C639.148 1183.1 636.696 1182.3 635.872 1183.04C635.049 1183.8 635.715 1185.84 637.069 1186.84Z" fill="#333333"/>
<path d="M639.854 1186.36L642.875 1186.54L642.836 1187.06L639.834 1186.88L639.854 1186.36Z" fill="#333333"/>
<path d="M645.582 1192.36L645.111 1192.54L642.385 1186.72L642.875 1186.54L645.582 1192.36Z" fill="#333333"/>
<path d="M665.373 1188.7L661.039 1188.56C661.039 1188.56 659.96 1188.3 661.862 1186.52C663.765 1184.74 666.276 1184.22 667.021 1185.06C667.766 1185.9 666.864 1187.86 665.393 1188.7H665.373Z" fill="#333333"/>
<path d="M662.627 1188.38L659.626 1188.2L659.646 1187.66L662.666 1187.84L662.627 1188.38Z" fill="#333333"/>
<path d="M656.272 1193.1L656.723 1193.34L660.117 1187.92L659.665 1187.68L656.272 1193.1Z" fill="#333333"/>
<path d="M642.129 1197.22C642.129 1197.22 643.856 1198.72 649.936 1198.36L650.132 1200.66C650.132 1200.66 645.895 1203.46 642.836 1202.6C641.404 1202.2 640.874 1200.8 640.874 1200.8L641.129 1199.36L642.11 1197.24L642.129 1197.22Z" fill="#FFC400"/>
<path d="M669.257 1175.3C671.16 1176.3 668.335 1181.9 666.433 1180.9C664.53 1179.9 667.355 1174.3 669.257 1175.3Z" fill="#683A28"/>
<path d="M670.67 1176.36C670.67 1176.36 672.808 1170.16 668.492 1168.44C664.177 1166.7 660.509 1168.72 660.372 1171.68L660.234 1171.8C660.117 1171.9 660.058 1172.08 660.077 1172.24L660.509 1176.4C660.548 1176.66 660.627 1176.88 660.823 1177.08L661.058 1177.32C661.058 1177.32 661.686 1180.26 663.863 1180.22C667.963 1180.14 670.689 1176.38 670.689 1176.38L670.67 1176.36Z" fill="#FFC400"/>
<path d="M668.433 1176.06C666.55 1177.36 663.588 1178.74 661.058 1177.36V1177.32L660.803 1177.08C660.626 1176.88 660.509 1176.66 660.47 1176.4L660.058 1172.24C660.038 1172.1 660.077 1171.94 660.175 1171.84C660.254 1172.1 660.725 1172.5 663.157 1172.54C665.236 1172.56 667.472 1172.4 668.924 1172.26C669.061 1173.04 669.218 1174.78 668.433 1176.06Z" fill="#FFEDB2"/>
<path d="M670.316 1174.44C670.179 1174.64 669.492 1175.34 668.433 1176.06C669.237 1174.78 669.041 1173.06 668.904 1172.26C669.885 1172.16 670.532 1172.08 670.532 1172.08C670.532 1172.08 670.689 1173.86 670.297 1174.44H670.316Z" fill="black"/>
<path d="M670.14 1172.48C670.454 1172.5 670.395 1173.46 670.081 1173.44C669.767 1173.42 669.826 1172.46 670.14 1172.48Z" fill="#FFC400"/>
<path d="M645.837 1192.08L646.739 1189.16C647.759 1186.2 649.917 1185.28 654.036 1186.32L658.822 1188.2L653.055 1193L645.837 1192.06V1192.08Z" fill="#444444"/>
<path d="M672.101 1193.88L664.961 1192.18L664.628 1193.34L671.709 1195.12C671.984 1195.18 672.239 1195.04 672.297 1194.8L672.395 1194.34C672.435 1194.14 672.297 1193.94 672.101 1193.9V1193.88Z" fill="#333333"/>
<path d="M674.298 1183.56C674.298 1183.56 674.553 1185.98 672.847 1189.56C671.14 1193.14 670.689 1192.62 670.689 1192.62L670.414 1193.4L669.434 1193.34L669.041 1194.54L667.727 1194.2L667.649 1192.74L667.001 1193.62L666.884 1194.28L666.217 1194.72L665.864 1194.58L665.981 1193.92L665.471 1194.16L665.432 1192.76L666.276 1191.2L668.374 1191.46L670.199 1187.16L670.512 1184.3L674.278 1183.56H674.298Z" fill="#683A28"/>
<path d="M670.493 1184.62C670.493 1184.62 672.298 1183.66 674.612 1184.2L674.495 1180.56L669.708 1181.46L670.513 1184.58L670.493 1184.62Z" fill="#AFEDD6"/>
<path d="M674.298 1184.16L674.259 1184.72L674.847 1184.34C674.847 1184.34 674.71 1184.24 674.298 1184.16Z" fill="#003F2B"/>
<path d="M1440.54 1093.96L1439.5 1104.02C1439.48 1104.22 1439.54 1104.42 1439.66 1104.57C1439.99 1105.02 1440.67 1104.99 1440.97 1104.52L1445.42 1097.52L1440.54 1093.96Z" fill="#444444"/>
<path d="M1444.55 1091.9C1444.55 1091.9 1441.3 1091.4 1440.25 1091.86C1439.89 1092.01 1439.78 1092.5 1439.77 1092.97C1439.74 1093.62 1440.05 1094.23 1440.58 1094.61C1442.12 1095.73 1445.72 1098.28 1447.29 1098.84C1449.45 1099.62 1457.55 1099.71 1457.55 1099.71L1457.74 1098.34L1444.55 1091.9V1091.9Z" fill="#333333"/>
<path d="M1441.23 1076.16L1439.75 1089.2C1439.66 1089.91 1440.17 1090.54 1440.88 1090.62C1444.2 1091 1453.1 1092.04 1456.27 1092.41C1456.89 1092.48 1457.46 1092.02 1457.52 1091.4L1458.8 1077.84L1441.23 1076.16Z" fill="#FFC40C"/>
<path d="M1018.83 1222.75L-570.887 1233.71C-570.887 1233.71 -373.065 1220.42 -322.438 1215.09C-312.216 1214.02 -301.537 1197.25 -269.411 1206.18C-267.201 1203.43 -266.439 1198.72 -248.307 1195.72C-230.656 1192.81 -219.241 1192.47 -212.892 1193.82C-202.886 1183.57 -172.512 1181.03 -156.373 1189.09C-145.453 1179.53 -113.416 1180.18 -103.321 1190.16C-94.3307 1186.27 -84.9088 1182.27 -73.4679 1180.95C-62.027 1179.63 -48.0339 1181.97 -43.488 1187.63C-35.4882 1179.77 -7.89545 1181.61 -3.9718 1190.36C5.88184 1185.33 11.5579 1175.48 49.6646 1173.52C68.1021 1172.57 77.7398 1176.72 92.0759 1182.97C102.818 1171.34 152.455 1171.92 159.236 1181.68L176.695 1175.54C197.101 1170.48 214.815 1176.81 225.126 1175.61C230.56 1174.97 235.614 1173.78 240.947 1172.98C254.267 1170.96 269.048 1171.57 281.759 1174.65C287.181 1175.97 302.964 1173.47 308.424 1171.43C321.161 1166.68 337.122 1164.32 352.614 1164.89C358.785 1165.09 364.88 1165.79 371.076 1165.81C382.86 1165.9 389.984 1159.45 417.107 1162.22L441.69 1167.52C480.508 1155.18 509.243 1159.99 525.751 1171.03C538.944 1162.72 551.007 1162.44 567.172 1162.82C591.057 1163.38 613.062 1170.45 626.903 1176.47C632.147 1166.68 663.105 1160.81 675.105 1168.18C677.771 1161.61 692.221 1157.52 705.326 1157.57C718.456 1157.64 730.455 1160.77 741.871 1163.82C748.931 1152.07 783.876 1147.62 799.71 1156.48C814.198 1146.03 842.731 1147.96 857.892 1157.66C862.502 1152.64 864.203 1152.66 874.298 1147.53C883.758 1142.71 897.701 1140.45 908.202 1144.57C913.167 1146.52 921.497 1147.23 925.027 1149.89C926.106 1143.96 941.255 1139.55 959.019 1138.66C1042.76 1134.46 1018.92 1222.8 1018.92 1222.8L1018.83 1222.75Z" fill="white"/>
<path d="M1684.49 1224.11L491.821 1284.76C491.821 1284.76 620.731 1223.79 659.511 1214.86C667.333 1213.08 674.215 1189.26 699.84 1200.83C701.313 1196.93 701.541 1190.27 715.331 1185.56C728.753 1180.98 737.566 1180.15 742.619 1181.84C749.502 1167.21 772.815 1162.74 785.983 1173.59C793.627 1159.88 820.611 1157.48 829.296 1171.19C835.924 1165.47 836.305 1164.51 845.067 1162.31C853.829 1160.11 869.32 1160.37 873.32 1168.22C878.856 1156.98 902.83 1154.16 906.614 1166.31C913.827 1158.94 912.29 1152.29 941.635 1148.4C955.832 1146.52 965.634 1147.03 977.266 1155.39C984.135 1139.89 1010.55 1137.6 1027.26 1146.23C1029.52 1147.4 1032.08 1147.26 1034.14 1145.81L1043.65 1139.16C1059.05 1131.49 1073.28 1139.82 1081.15 1137.82C1085.31 1136.78 1089.12 1134.97 1093.2 1133.68C1103.36 1130.47 1112.59 1130.38 1123.13 1132.12C1131.03 1133.44 1140.59 1131.21 1144.63 1128.18C1154.06 1121.16 1166.97 1118.75 1179.01 1119.07C1183.81 1119.18 1188.59 1119.97 1193.41 1119.8C1202.55 1119.57 1206.48 1112.04 1227.71 1115.14L1241.26 1118.63C1243.03 1102.92 1292.95 1094.67 1306.68 1109.66C1316.2 1097.59 1322.14 1094.66 1337.9 1091.82C1359.3 1087.95 1371.41 1091.62 1382.64 1099.64C1385.86 1085.77 1412.11 1084.33 1422.01 1094.28C1423.52 1084.98 1434.38 1078.86 1444.53 1078.54C1454.7 1078.25 1464.23 1082.27 1473.35 1086.25C1477.82 1069.57 1504.51 1062.31 1517.53 1074.26C1527.86 1059.2 1550.16 1061.08 1562.68 1074.21C1565.82 1067.06 1567.15 1067.02 1574.54 1059.53C1581.47 1052.52 1592.08 1048.94 1600.55 1054.38C1604.57 1056.98 1611.06 1057.76 1614.01 1061.36C1614.35 1053.04 1625.71 1046.42 1639.39 1044.63C1703.9 1036.27 1684.53 1224.16 1684.53 1224.16L1684.49 1224.11Z" fill="white"/>
</g>
<defs>
<clipPath id="clip0_3210_2">
<rect width="1440" height="1200" fill="white"/>
</clipPath>
</defs>
</svg>
