<svg width="1441" height="800" viewBox="0 0 1441 800" fill="none" xmlns="http://www.w3.org/2000/svg">
<g clip-path="url(#clip0_1419_413)">
<mask id="mask0_1419_413" style="mask-type:luminance" maskUnits="userSpaceOnUse" x="0" y="0" width="1441" height="800">
<path d="M1440.5 0H0.5V800H1440.5V0Z" fill="white"/>
</mask>
<g mask="url(#mask0_1419_413)">
<path d="M676.975 798.578L676.897 799.812L682.586 800.047L682.292 797.359L679.545 797.328L676.975 798.578Z" fill="#444444"/>
<path d="M682.095 793.14C681.781 793.859 680.761 795.968 680.545 796.422L680.133 796.797L678.466 796.234L676.818 792.75L677.191 792.5C677.191 792.5 677.976 791.797 679.564 791.812C680.369 791.812 681.114 791.859 681.644 792C681.918 792.203 682.33 792.609 682.095 793.156V793.14Z" fill="#444444"/>
<path d="M678.113 802.328L678.702 803.047L680.349 803.109L680.84 797.578L678.153 797.609L678.113 802.328Z" fill="#303030"/>
<path d="M674.426 799.75L680.762 797.578L680.821 797.422C680.938 797.047 680.527 796.688 679.997 796.688H678.938L675.505 798.5L674.426 799.766V799.75Z" fill="#1C1C1C"/>
<path d="M674.465 793.406L677.211 792.515L678.27 792.593C679.584 792.671 680.585 793.468 680.585 794.406L680.349 795.968C680.31 796.187 680.192 796.375 679.977 796.531L679.329 797.015L675.151 799.14L674.465 793.406Z" fill="#0C0000"/>
<path d="M666.069 782.234L679.996 782.828L679.31 794.344L665.814 793.094L666.069 782.234Z" fill="#FFBA38"/>
<path d="M686.333 791.25L679.311 794.344L679.997 782.828L687.176 780.719L686.333 791.25Z" fill="#FFC400"/>
<path d="M666.069 782.234L673.974 780.25L687.175 780.718L679.996 782.828L666.069 782.234Z" fill="#FCD363"/>
<path d="M687.038 782.484L679.878 784.671L679.996 782.828L687.175 780.703L687.038 782.484Z" fill="#FFEDB2"/>
<path d="M677.348 793.625C677.348 793.625 679.368 796.328 674.327 800.281C674.072 800.484 674.033 800.766 674.19 801.016C674.818 801.922 676.289 804.062 676.446 804.781C676.662 805.719 677.093 807.047 677.093 807.047C677.093 807.047 676.387 808.5 673.366 808.016C673.366 808.016 670.679 803.5 669.62 802.156C668.286 800.484 668.482 799.516 669.129 798.656L666.579 796.266L666.03 792.641L677.329 793.609L677.348 793.625Z" fill="#002619"/>
<path d="M659.42 784.875L658.38 785.297L656.144 786.906C656.144 786.906 656.144 787.109 655.007 787.328C653.869 787.547 651.947 789.625 651.947 789.625L655.144 790.859L661.264 786.922L659.44 784.875H659.42Z" fill="#683A28"/>
<path d="M658.38 785.296C658.38 785.296 659.891 782.64 661.852 782.515C663.814 782.39 671.15 781.546 671.15 781.546C671.15 781.546 672.327 781.296 673.484 781.968C674.641 782.64 675.034 783.078 675.681 785.203C675.681 785.203 675.916 787 676.093 787.625C676.23 788.078 676.956 789.937 677.093 791.937C677.093 791.937 677.289 793.093 677.682 793.906C678.074 794.718 677.701 794.609 677.701 794.609C677.701 794.609 677.976 793.421 671.66 793.453C665.324 793.484 664.559 793.406 664.559 793.406L665.148 792.343C665.148 792.343 664.559 791.281 664.814 790.625C664.814 790.625 662.048 787.953 661.99 786.609L661.283 787.125C661.283 787.125 659.734 785.39 658.361 785.296H658.38Z" fill="#AFEDD6"/>
<path d="M670.111 797.781L669.13 799.312C669.13 799.312 669.15 799.203 669.032 799.046C668.895 798.828 668.522 798.578 667.757 798.546C666.855 798.5 663.972 798.406 662.304 798.359C661.578 798.328 661.088 798.312 661.088 798.312L659.323 796.796L658.322 795.937L657.381 795.14C657.381 795.14 657.577 794.953 657.891 794.703C658.793 793.937 660.774 792.453 662.03 792.531C663.717 792.64 667.071 792.453 667.855 793.562C668.64 794.656 671.111 796.234 670.131 797.781H670.111Z" fill="#444444"/>
<path d="M663.167 794.265C663.167 794.265 663.167 793.953 663.167 793.672C663.167 793.343 663.598 793.125 664.03 793.203L666.305 793.672L664.52 795.828C664.226 796.187 663.637 796.375 663.068 796.312C663.068 796.312 661.931 795.937 661.519 795.875C661.029 795.796 659.577 795.875 659.577 795.875L658.577 793.5L658.694 793.187C658.773 792.984 659.028 792.859 659.302 792.859H659.852L659.95 792.39C659.989 792.203 660.244 792.078 660.519 792.125L662.009 792.375C662.323 792.437 662.519 792.656 662.46 792.875L662.186 793.937L663.186 794.265H663.167Z" fill="#333333"/>
<path d="M661.637 798.047L659.185 793.906C658.93 793.484 658.204 793.312 657.674 793.562L656.498 794.125L657.341 797.281L661.637 798.047Z" fill="#0C0000"/>
<path d="M662.755 797.641L662.284 798.359L661.813 799.141C661.676 799.344 661.46 799.5 661.166 799.578C660.597 799.75 659.479 800.062 658.106 800.453C655.85 801.078 652.849 801.859 650.044 802.453C646.964 803.109 644.14 803.547 642.885 803.281C640.315 802.75 641.492 800.078 641.982 798.219C642.924 794.75 645.395 792.812 646.317 792.187C646.533 792.047 646.808 791.953 647.102 791.922L658.969 790.969C658.969 790.969 657.557 792.719 657.851 794.703C657.91 795.094 658.027 795.469 658.243 795.859C658.243 795.891 658.263 795.906 658.282 795.937C658.518 796.328 658.89 796.609 659.302 796.797C660.263 797.25 661.519 797.266 662.303 797.219C662.617 797.203 662.853 797.437 662.735 797.641H662.755Z" fill="#333333"/>
<path d="M682.448 792.703C682.389 793.187 682.311 794.031 682.252 794.531C682.213 794.797 682.095 795.047 681.86 795.266L680.545 796.437C680.761 795.984 681.781 793.859 682.095 793.156C682.33 792.625 681.899 792.203 681.624 792C682.154 792.125 682.507 792.359 682.448 792.719V792.703Z" fill="#FFC400"/>
<path d="M669.796 802.656C669.659 802.297 669.384 801.953 668.894 801.625C666.58 800.094 661.538 800.187 658.125 800.453C659.499 800.078 660.617 799.75 661.185 799.578C661.46 799.5 661.695 799.344 661.833 799.141L662.303 798.359C663.971 798.422 666.874 798.516 667.776 798.547C668.541 798.578 668.875 798.844 669.031 799.062C668.894 799.734 668.796 800.766 669.443 801.484C669.953 802.063 669.953 802.422 669.816 802.656H669.796Z" fill="#303030"/>
<path d="M637.569 789.719L641.884 790.031C641.884 790.031 642.983 789.906 641.315 788.359C639.648 786.797 637.196 786.172 636.372 786.75C635.549 787.344 636.215 788.937 637.569 789.719Z" fill="#333333"/>
<path d="M640.354 789.343L643.375 789.484L643.336 789.89L640.334 789.75L640.354 789.343Z" fill="#333333"/>
<path d="M646.082 794.031L645.611 794.171L642.885 789.625L643.375 789.484L646.082 794.031Z" fill="#333333"/>
<path d="M665.873 791.172L661.539 791.062C661.539 791.062 660.46 790.859 662.362 789.468C664.265 788.078 666.776 787.672 667.521 788.328C668.266 788.984 667.364 790.515 665.893 791.172H665.873Z" fill="#333333"/>
<path d="M663.127 790.921L660.126 790.781L660.146 790.359L663.166 790.5L663.127 790.921Z" fill="#333333"/>
<path d="M656.772 794.609L657.224 794.796L660.617 790.562L660.165 790.375L656.772 794.609Z" fill="#333333"/>
<path d="M642.629 797.828C642.629 797.828 644.356 799 650.436 798.718L650.632 800.515C650.632 800.515 646.395 802.703 643.336 802.031C641.904 801.718 641.374 800.625 641.374 800.625L641.629 799.5L642.61 797.843L642.629 797.828Z" fill="#FFC400"/>
<path d="M669.757 780.703C671.66 781.484 668.835 785.859 666.933 785.078C665.03 784.297 667.855 779.922 669.757 780.703Z" fill="#683A28"/>
<path d="M671.171 781.531C671.171 781.531 673.309 776.687 668.993 775.343C664.678 773.984 661.01 775.562 660.873 777.875L660.735 777.968C660.618 778.046 660.559 778.187 660.578 778.312L661.01 781.562C661.049 781.765 661.128 781.937 661.324 782.093L661.559 782.281C661.559 782.281 662.187 784.578 664.364 784.546C668.464 784.484 671.19 781.546 671.19 781.546L671.171 781.531Z" fill="#FFC400"/>
<path d="M668.933 781.297C667.05 782.312 664.088 783.391 661.558 782.312V782.281L661.303 782.094C661.126 781.937 661.009 781.766 660.97 781.562L660.558 778.312C660.538 778.203 660.577 778.078 660.675 778C660.754 778.203 661.225 778.516 663.657 778.547C665.736 778.562 667.972 778.437 669.424 778.328C669.561 778.937 669.718 780.297 668.933 781.297Z" fill="#FFEDB2"/>
<path d="M670.817 780.031C670.68 780.187 669.993 780.734 668.934 781.297C669.738 780.297 669.542 778.953 669.405 778.328C670.386 778.25 671.033 778.188 671.033 778.188C671.033 778.188 671.19 779.578 670.798 780.031H670.817Z" fill="black"/>
<path d="M670.64 778.5C670.954 778.515 670.895 779.265 670.581 779.25C670.267 779.234 670.326 778.484 670.64 778.5Z" fill="#FFC400"/>
<path d="M646.337 793.812L647.239 791.531C648.259 789.219 650.417 788.5 654.536 789.312L659.322 790.781L653.555 794.531L646.337 793.797V793.812Z" fill="#444444"/>
<path d="M672.601 795.218L665.461 793.89L665.128 794.796L672.209 796.187C672.484 796.234 672.739 796.125 672.797 795.937L672.895 795.578C672.935 795.421 672.797 795.265 672.601 795.234V795.218Z" fill="#333333"/>
<path d="M674.799 787.156C674.799 787.156 675.054 789.047 673.348 791.844C671.641 794.641 671.19 794.234 671.19 794.234L670.915 794.844L669.935 794.797L669.542 795.734L668.228 795.469L668.15 794.328L667.502 795.016L667.385 795.531L666.718 795.875L666.365 795.766L666.482 795.25L665.972 795.437L665.933 794.344L666.777 793.125L668.875 793.328L670.7 789.969L671.013 787.734L674.779 787.156H674.799Z" fill="#683A28"/>
<path d="M670.993 787.984C670.993 787.984 672.798 787.234 675.112 787.656L674.995 784.812L670.208 785.516L671.013 787.953L670.993 787.984Z" fill="#AFEDD6"/>
<path d="M674.799 787.625L674.76 788.062L675.348 787.765C675.348 787.765 675.211 787.687 674.799 787.625Z" fill="#003F2B"/>
<path d="M1441.04 717.156L1440.01 725.016C1439.98 725.173 1440.04 725.326 1440.16 725.448C1440.49 725.796 1441.17 725.771 1441.47 725.406L1445.92 719.936L1441.04 717.156Z" fill="#444444"/>
<path d="M1445.05 715.55C1445.05 715.55 1441.8 715.16 1440.75 715.512C1440.39 715.634 1440.28 716.012 1440.27 716.38C1440.25 716.889 1440.55 717.368 1441.08 717.664C1442.62 718.537 1446.22 720.529 1447.79 720.969C1449.95 721.576 1458.05 721.652 1458.05 721.652L1458.24 720.576L1445.05 715.545V715.55Z" fill="#333333"/>
<path d="M1441.73 703.248L1440.25 713.439C1440.16 713.99 1440.67 714.486 1441.38 714.55C1444.7 714.842 1453.6 715.655 1456.77 715.943C1457.39 715.999 1457.96 715.643 1458.02 715.155L1459.3 704.566L1441.73 703.248Z" fill="#FFC40C"/>
<path d="M1019.33 817.773L-570.387 826.336C-570.387 826.336 -372.565 815.953 -321.938 811.789C-311.716 810.953 -301.037 797.851 -268.911 804.828C-266.701 802.679 -265.939 799 -247.807 796.656C-230.156 794.383 -218.741 794.117 -212.392 795.172C-202.386 787.164 -172.012 785.179 -155.873 791.476C-144.953 784.008 -112.916 784.515 -102.821 792.312C-93.8304 789.273 -84.4085 786.148 -72.9676 785.117C-61.5267 784.086 -47.5336 785.914 -42.9877 790.336C-34.9879 784.195 -7.39518 785.633 -3.4715 792.468C6.38215 788.539 12.0582 780.843 50.1649 779.315C68.6024 778.571 78.2401 781.812 92.5762 786.695C103.318 777.608 152.955 778.065 159.736 785.687L177.195 780.893C197.601 776.934 215.315 781.883 225.626 780.942C231.06 780.446 236.114 779.514 241.447 778.889C254.767 777.311 269.548 777.787 282.259 780.198C287.681 781.23 303.464 779.276 308.924 777.678C321.66 773.967 337.622 772.122 353.114 772.569C359.285 772.727 365.38 773.272 371.576 773.293C383.36 773.362 390.484 768.322 417.607 770.485L442.19 774.622C481.008 764.988 509.743 768.738 526.251 777.37C539.444 770.872 551.507 770.654 567.672 770.951C591.557 771.387 613.562 776.914 627.403 781.617C632.647 773.967 663.605 769.383 675.605 775.138C678.271 770.008 692.721 766.814 705.826 766.853C718.956 766.903 730.955 769.354 742.371 771.735C749.431 762.557 784.376 759.075 800.21 766C814.698 757.834 843.231 759.343 858.392 766.922C863.002 763.004 864.703 763.014 874.798 759.005C884.258 755.244 898.201 753.479 908.702 756.693C913.667 758.221 921.997 758.777 925.527 760.851C926.606 756.217 941.755 752.774 959.519 752.079C1043.26 748.795 1019.42 817.812 1019.42 817.812L1019.33 817.773Z" fill="white"/>
<path d="M1684.99 818.836L492.321 866.219C492.321 866.219 621.231 818.586 660.011 811.609C667.833 810.218 674.715 791.609 700.34 800.648C701.813 797.601 702.041 792.398 715.831 788.719C729.253 785.14 738.066 784.492 743.119 785.812C750.002 774.384 773.315 770.891 786.483 779.365C794.127 768.659 821.111 766.784 829.796 777.49C836.424 773.025 836.805 772.271 845.567 770.554C854.329 768.837 869.82 769.036 873.82 775.168C879.356 766.387 903.33 764.184 907.114 773.679C914.327 767.925 912.79 762.726 942.135 759.69C956.332 758.221 966.134 758.618 977.766 765.147C984.635 753.042 1011.05 751.246 1027.76 757.993C1030.02 758.906 1032.58 758.797 1034.64 757.665L1044.15 752.466C1059.55 746.474 1073.78 752.983 1081.65 751.425C1085.81 750.611 1089.62 749.192 1093.7 748.19C1103.86 745.68 1113.09 745.611 1123.63 746.97C1131.53 748.001 1141.09 746.255 1145.13 743.894C1154.56 738.408 1167.47 736.522 1179.51 736.77C1184.31 736.859 1189.09 737.475 1193.91 737.346C1203.05 737.167 1206.98 731.283 1228.21 733.704L1241.76 736.433C1243.53 724.159 1293.45 717.71 1307.18 729.418C1316.7 719.992 1322.64 717.701 1338.4 715.488C1359.8 712.461 1371.91 715.329 1383.14 721.59C1386.36 710.755 1412.61 709.634 1422.51 717.403C1424.02 710.14 1434.88 705.358 1445.03 705.109C1455.2 704.881 1464.73 708.026 1473.85 711.132C1478.32 698.104 1505.01 692.429 1518.03 701.765C1528.36 689.998 1550.66 691.467 1563.18 701.726C1566.32 696.14 1567.65 696.11 1575.04 690.256C1581.97 684.779 1592.58 681.982 1601.05 686.238C1605.07 688.262 1611.56 688.877 1614.51 691.685C1614.85 685.186 1626.21 680.017 1639.89 678.618C1704.4 672.09 1685.03 818.875 1685.03 818.875L1684.99 818.836Z" fill="white"/>
</g>
</g>
<defs>
<clipPath id="clip0_1419_413">
<rect width="1440" height="800" fill="white" transform="translate(0.5)"/>
</clipPath>
</defs>
</svg>
