<svg width="404" height="289" viewBox="0 0 404 289" fill="none" xmlns="http://www.w3.org/2000/svg">
<path d="M403.399 151.125C403.399 181.552 381.356 206.263 354.173 206.263C348.27 206.263 342.641 205.098 337.405 202.944C337.444 203.295 337.444 203.669 337.444 204.043C337.444 236.822 313.714 263.38 284.512 263.38C266.841 263.38 251.191 253.663 241.581 238.735C230.853 247.199 217.85 252.124 203.749 252.124C199.023 252.124 194.375 251.552 189.923 250.475C177.744 273.054 155.621 288.179 130.381 288.179C93.8044 288.179 63.8177 256.499 61.0916 216.288H60.3856C29.4967 216.288 4.45215 188.192 4.45215 153.565C4.45215 118.939 29.4967 90.8421 60.3856 90.8421C70.2896 90.8421 79.5857 93.7441 87.6266 98.8006C87.5678 97.4596 87.5286 96.0965 87.5286 94.7334C87.5286 44.8714 123.575 4.46301 168.075 4.46301C200.651 4.46301 228.657 26.0963 241.345 57.271C251.073 50.7194 262.409 47.004 274.568 47.004C304.143 47.004 329.09 69.1649 336.836 99.4822C342.23 97.1738 348.054 95.9206 354.154 95.9206C381.336 95.9206 403.38 120.632 403.38 151.103L403.399 151.125Z" fill="white" fill-opacity="0.4"/>
<path d="M387.592 142.485C387.592 172.055 366.176 196.062 339.758 196.062C334.012 196.062 328.56 194.919 323.48 192.83C323.52 193.182 323.52 193.556 323.52 193.908C323.52 225.764 300.475 251.53 272.097 251.53C254.936 251.53 239.717 242.121 230.382 227.611C219.968 235.811 207.318 240.626 193.629 240.626C189.04 240.626 184.51 240.054 180.175 239.021C168.33 260.962 146.855 275.648 122.34 275.648C86.8027 275.648 57.6593 244.869 55.0117 205.824H54.3252C24.3189 205.802 0 178.518 0 144.859C0 111.2 24.3189 83.9387 54.3252 83.9387C63.9547 83.9387 72.9763 86.7308 80.8014 91.6555C80.7426 90.3583 80.7034 89.0612 80.7034 87.7202C80.7034 39.2652 115.73 0 158.955 0C190.589 0 217.83 21.0177 230.166 51.313C239.619 44.9593 250.641 41.3318 262.448 41.3318C291.199 41.3318 315.4 62.8771 322.931 92.337C328.168 90.0945 333.855 88.8854 339.778 88.8854C366.176 88.8854 387.592 112.871 387.592 142.485Z" fill="white"/>
</svg>
