<svg width="481" height="226" viewBox="0 0 481 226" fill="none" xmlns="http://www.w3.org/2000/svg">
<path d="M0.150882 81.8502C7.66069 -3.51188 177.364 1.43578 226.193 0.519542C279.353 -0.457769 481.557 -6.56598 480.685 69.1146C480.685 69.3284 480.685 69.6033 480.685 69.8171C480.155 98.3423 447.623 121.218 408.578 120.485C393.839 120.21 380.222 116.697 368.972 110.864C360.777 131.815 334.103 146.841 302.787 146.261C301.602 146.261 300.356 146.231 299.172 146.17C299.359 147.941 299.39 149.682 299.359 151.484C298.58 193.6 249.221 226.828 189.142 225.729C129.095 224.629 81.0449 189.629 81.8239 147.513C81.8239 146.75 81.8551 145.925 81.9485 145.131C35.581 141.894 -2.71592 114.376 0.150882 81.8807V81.8502Z" fill="white" fill-opacity="0.4"/>
<path d="M19.1902 81.9113C26.0768 3.97061 180.978 8.49068 225.538 7.66606C274.025 6.78039 458.56 1.22194 457.781 70.2751C457.781 70.4889 457.781 70.7027 457.781 70.9165C457.283 96.968 427.617 117.797 392 117.156C378.57 116.911 366.074 113.704 355.822 108.39C348.375 127.509 324.007 141.252 295.432 140.703C294.311 140.703 293.22 140.642 292.161 140.581C292.347 142.199 292.347 143.818 292.316 145.467C291.568 183.918 246.541 214.215 191.697 213.207C136.885 212.199 93.0729 180.223 93.7896 141.802C93.7896 141.1 93.7896 140.336 93.8831 139.634C51.5664 136.671 16.5727 111.567 19.1902 81.9113Z" fill="white"/>
</svg>
