<svg width="80" height="125" viewBox="0 0 80 125" fill="none" xmlns="http://www.w3.org/2000/svg">
<path d="M59.2946 102.373L60.2379 102.09C60.8821 101.891 61.3361 101.443 61.4285 100.897L65.7452 62.7695C65.8158 62.3454 65.6718 61.8996 65.3347 61.5299L57.2504 52.6111C56.9052 52.2251 56.3833 51.956 55.807 51.8527L26.5606 32.5092C25.9898 32.4113 25.419 32.4929 24.9623 32.7348L14.3935 38.378C13.9504 38.6145 13.6541 38.9869 13.5861 39.4191L4.78148 91.4586C4.68358 92.021 4.97718 92.606 5.55078 93.008L5.74378 93.147C7.01598 94.038 6.69518 95.585 5.15938 95.938C4.68368 96.05 4.30308 96.289 4.06118 96.61C3.93338 96.781 3.84908 96.971 3.80838 97.178L1.21508 112.534C1.06288 113.436 1.90278 114.333 3.09618 114.526C12.0802 115.97 46.5267 121.496 55.421 122.928C56.5844 123.116 57.6391 122.553 57.7941 121.664L60.3303 107.192C60.4309 106.643 60.1509 106.069 59.6045 105.664L58.8352 105.094C57.6636 104.229 57.9137 102.794 59.3 102.367L59.2946 102.373ZM36.6782 61.5544C34.5443 61.1928 33.1064 59.1731 33.4679 57.0365C33.8294 54.8999 35.8491 53.4647 37.9857 53.8262C40.1169 54.1877 41.5576 56.2074 41.1961 58.344C40.8345 60.4806 38.8094 61.9132 36.6782 61.5544Z" fill="#F58750" stroke="black" stroke-width="2.10669" stroke-linecap="round" stroke-linejoin="round"/>
<path d="M55.3045 103.073L53.293 102.73" stroke="black" stroke-width="2.10669" stroke-linecap="round" stroke-linejoin="round"/>
<path d="M49.5581 102.094L14.0732 96.0508" stroke="black" stroke-width="2.10669" stroke-linecap="round" stroke-linejoin="round"/>
<path d="M12.2059 95.7326L10.1943 95.3906" stroke="black" stroke-width="2.10669" stroke-linecap="round" stroke-linejoin="round"/>
<path d="M76.0849 93.752L76.9684 93.315C77.5719 93.01 77.9443 92.494 77.9443 91.9391L78.2351 39.4702C78.2351 39.0407 78.0177 38.6248 77.6235 38.3177L68.1638 30.8749C67.7587 30.5514 67.2015 30.372 66.6143 30.3693L32.1543 30.334C31.5753 30.334 31.0262 30.508 30.6157 30.8233L21.1369 38.1491C20.7401 38.4563 20.509 38.8749 20.5144 39.3099V92.089C20.5117 92.66 20.8977 93.187 21.5311 93.489L21.7458 93.595C23.1512 94.263 23.0887 95.84 21.6371 96.443C21.1886 96.634 20.8515 96.933 20.6667 97.289C20.5688 97.479 20.5172 97.68 20.5117 97.892V113.465C20.5144 114.382 21.4958 115.126 22.7027 115.118C31.8036 115.042 66.6877 114.746 75.6962 114.672C76.8732 114.664 77.8219 113.93 77.8247 113.028L77.9089 98.335C77.9171 97.778 77.5447 97.259 76.9385 96.952L76.0849 96.52C74.7856 95.864 74.7937 94.407 76.0877 93.755L76.0849 93.752ZM49.3721 43.1209C47.2056 43.1209 45.455 41.3676 45.455 39.2038C45.455 37.0401 47.2083 35.2868 49.3721 35.2868C51.5359 35.2868 53.2892 37.0401 53.2892 39.2038C53.2892 41.3676 51.5331 43.1209 49.3721 43.1209Z" fill="#FFC60C" stroke="black" stroke-width="2.10669" stroke-linecap="round" stroke-linejoin="round"/>
<path d="M72.2653 95.1055L70.2266 95.1035" stroke="black" stroke-width="2.10669" stroke-linecap="round" stroke-linejoin="round"/>
<path d="M66.4373 95.1034L30.4414 95.0645" stroke="black" stroke-width="2.10669" stroke-linecap="round" stroke-linejoin="round"/>
<path d="M28.5465 95.0606L26.5078 95.0586" stroke="black" stroke-width="2.10669" stroke-linecap="round" stroke-linejoin="round"/>
<path d="M39.0568 29.6845C37.2736 27.0913 36.0068 24.1555 36.0068 21.043C36.0014 10.4987 42.4955 1.94685 50.5145 1.94141C58.5335 1.93597 65.0384 10.4796 65.0466 21.024C65.052 31.5683 50.539 40.1256 50.539 40.1256C50.539 40.1256 48.8699 39.1443 46.6626 37.4344" stroke="black" stroke-width="2.10669" stroke-linecap="round" stroke-linejoin="round"/>
<g style="mix-blend-mode:multiply">
<path d="M29.0944 59.8126C28.7193 54.5064 32.9626 50.1136 38.2442 50.2903C42.6751 50.4371 46.3611 53.9655 46.7335 58.3855C47.2201 64.1428 42.1858 68.8564 36.4692 67.905C32.4705 67.239 29.3825 63.8574 29.0971 59.8126H29.0944ZM41.8813 58.3093C41.5198 56.5914 40.0302 55.2838 38.2796 55.1425C35.8983 54.9495 33.9493 56.8007 33.914 59.0977C33.8813 61.3022 35.6292 63.1507 37.8827 63.1833C40.3836 63.2213 42.4277 60.9053 41.8813 58.3093ZM56.8022 51.1384C58.7213 51.1656 59.9744 53.1636 59.1644 54.9033L45.1161 85.1255C44.6758 86.0715 43.7189 86.6722 42.6751 86.6559C40.756 86.6287 39.5028 84.6308 40.3129 82.8911L54.3611 52.6688C54.8015 51.7229 55.7583 51.1221 56.8022 51.1357V51.1384ZM53.146 78.5173C53.2167 73.6705 57.2507 69.7507 62.0975 69.8241C67.1807 69.9002 71.1358 74.1245 70.8205 79.2105C70.5405 83.7229 66.7893 87.3627 62.2714 87.5122C57.18 87.678 53.0726 83.6005 53.146 78.52V78.5173ZM65.9221 79.4198C66.4141 76.8047 64.3536 74.4616 61.7033 74.6247C59.7543 74.7443 58.1369 76.3182 57.9574 78.2618C57.7155 80.9094 59.9989 83.0351 62.6248 82.6219C64.2721 82.361 65.6122 81.0589 65.9221 79.4198Z" fill="#FFC60C"/>
<path d="M59.2107 54.79C59.2107 54.79 61.5186 49.9215 56.5984 48.3965L55.1387 51.0115L59.2107 54.79Z" fill="#FFC60C"/>
<path d="M41.456 86.3388C41.456 86.3388 37.0251 84.629 39.3194 80.6738L42.6466 82.1825L41.4533 86.3388H41.456Z" fill="#FFC60C"/>
</g>
<path d="M27.7184 57.1114C27.3433 51.8052 31.5866 47.4124 36.8683 47.5891C41.2991 47.7359 44.9851 51.2643 45.3576 55.6843C45.8441 61.4417 40.8098 66.1552 35.0932 65.2038C31.0946 64.5378 28.0066 61.1563 27.7211 57.1114H27.7184ZM40.5054 55.6082C40.1438 53.8902 38.6542 52.5827 36.9036 52.4413C34.5223 52.2483 32.5733 54.0995 32.538 56.3965C32.5054 58.601 34.2532 60.4495 36.5067 60.4821C39.0076 60.5202 41.0517 58.2042 40.5054 55.6082ZM55.4262 48.4372C57.3453 48.4644 58.5985 50.4624 57.7884 52.2021L43.7402 82.4243C43.2998 83.3703 42.3429 83.9711 41.2991 83.9548C39.38 83.9276 38.1268 81.9296 38.9369 80.1899L52.9851 49.9677C53.4255 49.0217 54.3824 48.4209 55.4262 48.4345V48.4372ZM51.7701 75.8161C51.8407 70.9694 55.8747 67.0495 60.7215 67.1229C65.8047 67.1991 69.7599 71.4233 69.4445 76.5093C69.1646 81.0217 65.4133 84.6615 60.8954 84.811C55.804 84.9768 51.6967 80.8994 51.7701 75.8188V75.8161ZM64.5461 76.7186C65.0381 74.1036 62.9777 71.7604 60.3273 71.9235C58.3783 72.0431 56.7609 73.617 56.5815 75.5606C56.3395 78.2082 58.6229 80.334 61.2488 79.9208C62.8961 79.6598 64.2362 78.3577 64.5461 76.7186Z" fill="#0C513F" stroke="black" stroke-width="1.31668" stroke-linecap="round" stroke-linejoin="round"/>
</svg>
