<svg width="128" height="128" fill="none" xmlns="http://www.w3.org/2000/svg"><path d="M64 124c33.137 0 60-26.863 60-60S97.137 4 64 4 4 30.863 4 64s26.863 60 60 60Z" fill="#0C513F" stroke="#fff" stroke-width="7.09" stroke-miterlimit="10"></path><path d="M23.383 54.783c-.35 1.539-1.6 2.576-3.624 2.112-2.03-.464-2.718-1.937-2.346-3.47.365-1.534 1.598-2.576 3.623-2.113 2.024.464 2.696 1.938 2.346 3.471Zm-5.267-1.2c-.261 1.075.235 2.068 1.845 2.433 1.615.371 2.472-.316 2.718-1.391.245-1.08-.235-2.069-1.845-2.434-1.62-.371-2.466.327-2.718 1.391ZM23.121 39.416l.459-.818 4.18 4.83-.415.741-6.303-1.037.458-.818 4.983.884-3.362-3.776v-.006ZM32.141 29.583l-2.188 2.189 1.31 1.31 1.855-1.856.54.54-1.855 1.855 1.315 1.316 2.188-2.189.54.54-2.788 2.789-4.245-4.245 2.788-2.789.54.54ZM45.173 26.86l-.835.475-1.964-1.217c-.055.043-.115.076-.175.109l-1.151.66 1.004 1.757-.737.42-2.985-5.21 1.894-1.081c1.19-.683 2.259-.475 2.892.633.458.802.398 1.56-.12 2.172l2.172 1.276.005.006Zm-5.752-2.816 1.277 2.232 1.152-.66c.775-.442.9-1.14.53-1.785-.372-.65-1.032-.89-1.807-.447l-1.151.66ZM55.82 23.247l-.95-1.457-2.275.545-.186 1.73-.911.218.802-6.368.824-.196 3.602 5.31-.911.218h.005Zm-3.138-1.676 1.768-.425-1.473-2.26-.295 2.68v.005ZM64.496 21.774l2.838.104-.028.736-3.683-.136.224-5.998.846.033-.197 5.26ZM75.104 23.286l2.718.813-.213.71-3.53-1.06 1.724-5.751.813.246-1.512 5.042ZM95.192 34.04c-.874.932-1.84.752-2.838-.186l-1.665-1.561 4.115-4.371 1.473 1.386c.977.917 1.152 1.73.393 2.538-.425.447-.83.573-1.277.43.382.584.399 1.13-.201 1.769v-.006Zm-2.358-.7c.65.612 1.228.661 1.74.115.514-.545.367-1.053-.283-1.664l-1.042-.982-1.457 1.55 1.042.982Zm2.106-4.327-1.233 1.31.857.802c.59.551 1.102.671 1.555.191.453-.48.268-.95-.316-1.5l-.857-.803h-.005ZM104.813 41.388l-1.616-2.641-1.582.966 1.37 2.237-.65.398-1.369-2.237-1.588.971 1.615 2.642-.65.398-2.057-3.367 5.119-3.138 2.057 3.367-.649.398v.006ZM105.014 50.685c-.737.284-.786 1.059-.611 1.66.18.627.627 1.249 1.473 1.003 1.648-.475-.862-3.383 1.49-4.06 1.015-.294 1.905.344 2.227 1.534.272 1.01-.022 1.931-.841 2.313l-.36-.725c.611-.257.715-.868.562-1.403-.164-.567-.589-1.113-1.348-.895-1.473.426 1.026 3.34-1.49 4.06-.758.219-1.91.093-2.406-1.626-.469-1.632.24-2.33.944-2.608l.36.753v-.006ZM110.646 66.048l-.032-1.932-5.239.088-.017-.852 5.239-.082-.033-1.937.764-.01.077 4.714-.764.011h.005ZM107.295 83.358l-.349.774-5.463-2.488.35-.775 5.462 2.489ZM100.36 94.532l-.524.671-4.731-3.7.523-.67 5.594.507-3.716-2.909.523-.671 4.732 3.7-.524.67-5.61-.523 3.738 2.925h-.005ZM79.787 105.742c-.84-1.861.022-3.302 1.55-3.989l1.85-.835 2.466 5.468-1.85.835c-1.522.687-3.176.382-4.016-1.479Zm1.839-3.34c-1.086.491-1.703 1.501-1.037 2.98.671 1.484 1.839 1.681 2.92 1.195l1.08-.486-1.883-4.174-1.08.485ZM68.78 110.63l3.062-.459-.273-1.833-2.597.387-.115-.753 2.598-.387-.273-1.839-3.061.458-.115-.753 3.902-.584.884 5.937-3.902.584-.115-.753.006-.005ZM60.148 106.193l-2.822-.305.082-.732 3.667.399-.65 5.964-.845-.093.568-5.233ZM48.748 109.168l-.803-.278 1.954-5.675.802.278-1.953 5.675ZM36.71 103.16l-.786-.508 5.075-3.869.715.459-1.425 6.221-.785-.508 1.19-4.917-3.979 3.122h-.005ZM27.448 93.556l2.052 2.32 1.386-1.228-1.74-1.965.572-.507 1.74 1.964 1.392-1.233-2.051-2.32.573-.507 2.614 2.952-4.497 3.978-2.614-2.952.573-.507v.005ZM25.538 80.365l.425.863-1.337 1.882c.038.06.071.12.098.18l.59 1.195 1.817-.895.377.764-5.386 2.652-.96-1.953c-.607-1.233-.334-2.287.812-2.849.83-.409 1.583-.3 2.161.257l1.408-2.09-.005-.006Zm-3.17 5.566 2.307-1.135-.589-1.195c-.393-.802-1.08-.971-1.752-.638-.67.327-.955.977-.562 1.779l.59 1.195.005-.006ZM16.769 71.046l-.18-.987 3.356 1.506 2.914-.524.153.846-2.914.524-2.62 2.597-.18-.988 1.96-1.893-2.494-1.075.005-.006Z" fill="#fff"></path><path d="m64 44.154 6.45 13.064 14.424 2.096-10.44 10.172 2.467 14.363L64 77.066l-12.896 6.783 2.462-14.363-10.434-10.172 14.423-2.096L64 44.154Z" fill="#FFC501"></path></svg>