<svg xmlns="http://www.w3.org/2000/svg" viewBox="0 0 84.52 83.51" width="21" height="24"><path d="M84.34 48.29c-3.59 19.39-20.88 35.2-41.31 35.2a43.1 43.1 0 0 1-24.5-7.65S.05 83.32.05 83.32l7.23-18.88C2.99 57.99.46 50.31.46 42.03c0-23.05 19.52-42 42.57-42 21.45 0 39.11 16.18 41.46 37-22.12-.3-28.84-4.16-33.17-7.18a11.03 11.03 0 0 0-2.6-1.33c-1.89-.83-3.98-1.29-6.17-1.29-8.48 0-14.53 5.21-14.53 13.7s6.46 13.69 14.94 13.69c1.32 0 2.61-.17 3.83-.48 2.22-.48 3.65-1.27 3.65-1.27C64 45.4 80.86 47.18 84.33 48.3Z" style="fill: rgb(255, 207, 31); stroke: rgb(255, 207, 31); stroke-miterlimit: 10; stroke-width: 0.05px;"></path></svg>