<svg width="14" height="14" viewBox="0 0 14 14" fill="none" xmlns="http://www.w3.org/2000/svg">
<path d="M5.95303 0.914159L6.64678 0.22041C6.94053 -0.0733403 7.41553 -0.0733402 7.70615 0.22041L13.7812 6.29228C14.0749 6.58603 14.0749 7.06103 13.7812 7.35166L7.70615 13.4267C7.4124 13.7204 6.9374 13.7204 6.64678 13.4267L5.95303 12.7329C5.65615 12.436 5.6624 11.9517 5.96553 11.661L9.73115 8.07353L0.749903 8.07353C0.334278 8.07353 -9.67583e-05 7.73916 -9.6722e-05 7.32353L-9.66345e-05 6.32353C-9.65982e-05 5.90791 0.334278 5.57353 0.749903 5.57353L9.73115 5.57353L5.96553 1.98603C5.65928 1.69541 5.65303 1.21103 5.95303 0.914159Z" fill="#8C77EC"/>
</svg>
