<svg width="22" height="24" viewBox="0 0 22 24" fill="none" xmlns="http://www.w3.org/2000/svg">
<path d="M9.72412 0.0671387C12.3202 -0.231742 14.9332 0.468274 17.0327 2.02417C19.132 3.58001 20.5612 5.87561 21.0308 8.44604C21.0418 8.50633 21.0365 8.56925 21.0151 8.62671C21.166 9.24296 21.2421 9.87507 21.2417 10.5095L21.2358 10.823C21.2074 11.5547 21.0773 12.2797 20.8481 12.9763C20.2517 15.1831 18.9389 17.1292 17.1167 18.5095H17.1147L10.8989 23.7175L4.10986 18.0359C2.28477 16.1937 0.757639 13.6973 0.617676 10.7966C0.490742 8.18651 1.36121 5.62584 3.05225 3.63354C4.74324 1.6413 7.12814 0.366062 9.72412 0.0671387ZM10.9585 4.54272C8.72069 4.54272 6.90597 6.35659 6.90576 8.59448C6.90576 10.8324 8.72043 12.6472 10.9585 12.6472C13.1965 12.6472 15.0103 10.8325 15.0103 8.59448C15.01 6.35676 13.1964 4.54278 10.9585 4.54272Z" fill="#FFC501"/>
</svg>
