<svg width="22" height="24" viewBox="0 0 22 24" fill="none" xmlns="http://www.w3.org/2000/svg">
<path d="M9.72456 0.0672753C12.3205 -0.231502 14.9327 0.468496 17.0322 2.02431C19.1316 3.58013 20.5616 5.87564 21.0312 8.44618C21.0422 8.50646 21.0369 8.56939 21.0156 8.62685C21.1665 9.24309 21.2426 9.87521 21.2421 10.5097C21.243 11.3476 21.1095 12.1805 20.8476 12.9765C20.2511 15.1834 18.9385 17.1302 17.1162 18.5106H17.1142L10.8984 23.7177L4.10933 18.036C2.2842 16.1938 0.757046 13.6975 0.617141 10.7968C0.490211 8.1867 1.36074 5.62596 3.05171 3.63368C4.74275 1.64138 7.1285 0.366156 9.72456 0.0672753ZM10.958 4.54286C8.72019 4.54304 6.9062 6.35764 6.9062 8.5956C6.90643 10.8332 8.72018 12.6472 10.958 12.6474C13.1959 12.6474 15.0105 10.8335 15.0107 8.5956C15.0107 6.35767 13.196 4.54286 10.958 4.54286Z" fill="#02C27F"/>
</svg>
