<svg width="21" height="24" viewBox="0 0 21 24" fill="none" xmlns="http://www.w3.org/2000/svg">
<path d="M9.1186 0.0673139C11.7147 -0.231567 14.3277 0.468449 16.4272 2.02435C18.5266 3.58024 19.9557 5.87661 20.4252 8.4472C20.4362 8.50736 20.4309 8.56955 20.4096 8.62688C20.5605 9.24316 20.6366 9.87521 20.6362 10.5097C20.637 11.3476 20.5045 12.1806 20.2426 12.9765C19.6461 15.1834 18.3335 17.1303 16.5112 18.5107H16.5082L10.2924 23.7177L3.50337 18.0361C1.67833 16.1939 0.152056 13.6974 0.012156 10.7968C-0.114746 8.18672 0.755712 5.62599 2.44673 3.63372C4.13774 1.64157 6.52266 0.3662 9.1186 0.0673139ZM10.353 4.5429C8.11505 4.5429 6.30024 6.35756 6.30024 8.59563C6.30039 10.8334 8.115 12.6474 10.353 12.6474C12.5909 12.6473 14.4046 10.8335 14.4047 8.59563C14.4047 6.35777 12.591 4.54301 10.353 4.5429Z" fill="#8C77EC"/>
</svg>
