<svg width="22" height="24" viewBox="0 0 22 24" fill="none" xmlns="http://www.w3.org/2000/svg">
<path d="M9.51459 0.0673293C12.1105 -0.231438 14.7228 0.467622 16.8222 2.02338C18.9217 3.57928 20.3517 5.87555 20.8212 8.44624C20.8322 8.50635 20.8268 8.56862 20.8056 8.62592C20.9565 9.24216 21.0316 9.8743 21.0312 10.5087C21.0321 11.3466 20.8995 12.1796 20.6376 12.9755C20.0411 15.1825 18.7286 17.1293 16.9062 18.5097H16.9042L10.6884 23.7177L3.89935 18.0351C2.07424 16.1929 0.547071 13.6966 0.407166 10.7958C0.280317 8.18583 1.15076 5.62498 2.84174 3.63276C4.53277 1.64052 6.91857 0.366205 9.51459 0.0673293ZM10.748 4.54194C8.51017 4.54207 6.69623 6.35668 6.69623 8.59467C6.69629 10.8325 8.51006 12.6463 10.748 12.6464C12.986 12.6464 14.8007 10.8327 14.8007 8.59467C14.8007 6.35674 12.9861 4.54194 10.748 4.54194Z" fill="#FFC501"/>
</svg>
