<svg width="21" height="24" viewBox="0 0 21 24" fill="none" xmlns="http://www.w3.org/2000/svg">
<path d="M9.11862 0.0673742C11.7147 -0.231507 14.3277 0.467533 16.4272 2.02343C18.5267 3.57932 19.9557 5.87566 20.4253 8.44628C20.4362 8.50647 20.4309 8.56859 20.4096 8.62597C20.5606 9.24235 20.6366 9.87517 20.6362 10.5098C20.637 11.3475 20.5034 12.1798 20.2417 12.9756C19.6452 15.1824 18.3334 17.1294 16.5112 18.5098H16.5083L10.2924 23.7178L3.50338 18.0351C1.67851 16.1931 0.152221 13.6972 0.012173 10.7969C-0.11476 8.18674 0.754728 5.6251 2.44577 3.6328C4.1368 1.64052 6.52257 0.366262 9.11862 0.0673742ZM10.353 4.54296C8.11509 4.54296 6.3003 6.35669 6.30026 8.59472C6.30026 10.8326 8.11492 12.6475 10.353 12.6475C12.5909 12.6473 14.4048 10.8327 14.4048 8.59472C14.4047 6.35693 12.5909 4.54313 10.353 4.54296Z" fill="#FF884D"/>
</svg>
