<svg width="21" height="24" viewBox="0 0 21 24" fill="none" xmlns="http://www.w3.org/2000/svg">
<path d="M9.11861 0.0673622C11.7146 -0.231506 14.3277 0.467656 16.4272 2.02342C18.5267 3.57926 19.9557 5.87569 20.4252 8.44627C20.4362 8.50645 20.4309 8.56858 20.4096 8.62596C20.5606 9.24233 20.6366 9.87516 20.6362 10.5097C20.637 11.3476 20.5045 12.1806 20.2426 12.9765C19.6461 15.1834 18.3334 17.1294 16.5112 18.5097H16.5092L10.2934 23.7178L3.50435 18.0361C1.67927 16.194 0.152139 13.6975 0.0121599 10.7969C-0.11477 8.1868 0.755785 5.62604 2.44673 3.63377C4.13767 1.64159 6.52272 0.36634 9.11861 0.0673622ZM10.353 4.54295C8.11522 4.54303 6.30139 6.35683 6.30122 8.59471C6.30122 10.8326 8.11498 12.6474 10.353 12.6474C12.5911 12.6474 14.4057 10.8328 14.4057 8.59471C14.4055 6.35692 12.5909 4.54295 10.353 4.54295Z" fill="#FFEDB3"/>
</svg>
