<svg width="20" height="23" viewBox="0 0 20 23" fill="none" xmlns="http://www.w3.org/2000/svg">
<path d="M19.2078 10.6316C19.2086 11.401 19.0864 12.1656 18.846 12.8965C18.2983 14.9229 17.0932 16.7102 15.4199 17.9777H15.4179L9.71046 22.7595L3.47671 17.5421C1.80085 15.8506 0.398909 13.5586 0.270446 10.8951C0.153895 8.49847 0.95297 6.14717 2.5057 4.31782C4.05843 2.48847 6.24863 1.31795 8.63237 1.04351C11.0161 0.769078 13.415 1.41127 15.3428 2.8399C17.2706 4.26854 18.5831 6.37674 19.0142 8.73717C19.0244 8.79252 19.0194 8.84969 18.9999 8.90245C19.1384 9.46841 19.2083 10.049 19.2079 10.6317L19.2078 10.6316Z" fill="#02C27F"/>
</svg>
